<svg xmlns="http://www.w3.org/2000/svg" viewBox="0 0 24 24" width="24" height="24" fill="#ffffff"><path d="M12 .5C5.73.5.5 5.73.5 12c0 5.08 3.29 9.39 7.86 10.9.57.1.78-.25.78-.55 0-.27-.01-1-.02-1.96-3.2.7-3.88-1.44-3.88-1.44-.52-1.33-1.28-1.69-1.28-1.69-1.05-.72.08-.71.08-.71 1.16.08 1.77 1.19 1.77 1.19 1.03 1.77 2.7 1.26 3.36.96.1-.75.4-1.26.73-1.55-2.56-.29-5.26-1.28-5.26-5.69 0-1.26.45-2.29 1.19-3.1-.12-.29-.52-1.46.11-3.04 0 0 .97-.31 3.18 1.18.92-.26 1.9-.39 2.88-.39.98 0 1.96.13 2.88.39 2.2-1.49 3.17-1.18 3.17-1.18.63 1.58.23 2.75.11 3.04.74.81 1.19 1.84 1.19 3.1 0 4.42-2.71 5.39-5.29 5.67.41.35.77 1.04.77 2.1 0 1.52-.01 2.75-.01 3.12 0 .3.2.66.79.55C20.71 21.39 24 17.08 24 12 24 5.73 18.27.5 12 .5z"/></svg>